<svg xmlns="http://www.w3.org/2000/svg" viewBox="0 0 512 512">
  <defs>
    <clipPath id="round"><rect x="0" y="0" width="512" height="512" rx="96" ry="96"/></clipPath>
    <linearGradient id="goldGrad" x1="0" y1="0" x2="0" y2="1">
      <stop offset="0%" stop-color="#F7D24A"/>
      <stop offset="100%" stop-color="#F1BF00"/>
    </linearGradient>
  </defs>
  <g clip-path="url(#round)">
    <rect x="0" y="0" width="512" height="512" fill="#AA151B"/>
    <rect x="0" y="128" width="512" height="256" fill="url(#goldGrad)"/>
    <rect x="0" y="384" width="512" height="128" fill="#AA151B"/>
    <g opacity="0.10">
      <rect x="0" y="128" width="512" height="256" fill="#000" transform="skewX(-20)"/>
    </g>
    <circle cx="256" cy="256" r="118" fill="#ffffff" opacity="0.96"/>
    <circle cx="256" cy="256" r="118" fill="none" stroke="#AA151B" stroke-width="6"/>
    <g transform="translate(256,246)">
      <path d="M -66 -34 C -30 -50 30 -50 66 -34 L 66 40 C 30 24 -30 24 -66 40 Z" fill="none" stroke="#AA151B" stroke-width="9" stroke-linejoin="round"/>
      <line x1="0" y1="-42" x2="0" y2="46" stroke="#AA151B" stroke-width="7"/>
      <path d="M -50 -22 C -28 -32 -10 -32 -6 -26" fill="none" stroke="#AA151B" stroke-width="5" stroke-linecap="round"/>
      <path d="M -50 -4 C -28 -14 -10 -14 -6 -8" fill="none" stroke="#AA151B" stroke-width="5" stroke-linecap="round"/>
      <path d="M 50 -22 C 28 -32 10 -32 6 -26" fill="none" stroke="#AA151B" stroke-width="5" stroke-linecap="round"/>
      <path d="M 50 -4 C 28 -14 10 -14 6 -8" fill="none" stroke="#AA151B" stroke-width="5" stroke-linecap="round"/>
    </g>
    <g transform="translate(256,344)">
      <path d="M -22 0 Q -22 -18 0 -18 Q 22 -18 22 0 Q 22 14 0 20 Q -22 14 -22 0 Z" fill="#F1BF00" stroke="#AA151B" stroke-width="4"/>
      <text x="0" y="6" text-anchor="middle" font-family="Georgia, serif" font-size="20" font-weight="700" fill="#AA151B">¡!</text>
    </g>
  </g>
  <rect x="3" y="3" width="506" height="506" rx="93" ry="93" fill="none" stroke="#00000022" stroke-width="6"/>
</svg>
